HIERARCHY
ROOT Hips
{
	OFFSET 0.00000 0.00000 0.00000
	CHANNELS 6 Xposition Yposition Zposition Zrotation Yrotation Xrotation 
	JOINT LHipJoint
	{
		OFFSET 0 0 0
		CHANNELS 3 Zrotation Yrotation Xrotation
		JOINT LeftUpLeg
		{
			OFFSET 1.62964 -1.40469 0.78906
			CHANNELS 3 Zrotation Yrotation Xrotation
			JOINT LeftLeg
			{
				OFFSET 2.29640 -6.30932 0.00000
				CHANNELS 3 Zrotation Yrotation Xrotation
				JOINT LeftFoot
				{
					OFFSET 2.29451 -6.30412 0.00000
					CHANNELS 3 Zrotation Yrotation Xrotation
					JOINT LeftToeBase
					{
						OFFSET 0.03611 -0.09921 1.56387
						CHANNELS 3 Zrotation Yrotation Xrotation
						End Site
						{
							OFFSET 0.00000 -0.00000 0.80291
						}
					}
				}
			}
		}
	}
	JOINT RHipJoint
	{
		OFFSET 0 0 0
		CHANNELS 3 Zrotation Yrotation Xrotation
		JOINT RightUpLeg
		{
			OFFSET -1.73712 -1.40469 0.78906
			CHANNELS 3 Zrotation Yrotation Xrotation
			JOINT RightLeg
			{
				OFFSET -2.28137 -6.26801 0.00000
				CHANNELS 3 Zrotation Yrotation Xrotation
				JOINT RightFoot
				{
					OFFSET -2.28681 -6.28298 0.00000
					CHANNELS 3 Zrotation Yrotation Xrotation
					JOINT RightToeBase
					{
						OFFSET -0.15927 -0.43759 1.61103
						CHANNELS 3 Zrotation Yrotation Xrotation
						End Site
						{
							OFFSET -0.00000 -0.00000 0.84630
						}
					}
				}
			}
		}
	}
	JOINT LowerBack
	{
		OFFSET 0 0 0
		CHANNELS 3 Zrotation Yrotation Xrotation
		JOINT Spine
		{
			OFFSET -0.04227 2.04338 -0.00225
			CHANNELS 3 Zrotation Yrotation Xrotation
			JOINT Spine1
			{
				OFFSET -0.02148 2.04482 -0.04273
				CHANNELS 3 Zrotation Yrotation Xrotation
				JOINT Neck
				{
					OFFSET 0 0 0
					CHANNELS 3 Zrotation Yrotation Xrotation
					JOINT Neck1
					{
						OFFSET 0.09180 1.44629 0.19359
						CHANNELS 3 Zrotation Yrotation Xrotation
						JOINT Head
						{
							OFFSET 0.00887 1.40645 0.14750
							CHANNELS 3 Zrotation Yrotation Xrotation
							End Site
							{
								OFFSET -0.00669 1.50671 0.03707
							}
						}
					}
				}
				JOINT LeftShoulder
				{
					OFFSET 0 0 0
					CHANNELS 3 Zrotation Yrotation Xrotation
					JOINT LeftArm
					{
						OFFSET 2.17674 1.86763 -0.06520
						CHANNELS 3 Zrotation Yrotation Xrotation
						JOINT LeftForeArm
						{
							OFFSET 4.65776 -0.00000 0.00000
							CHANNELS 3 Zrotation Yrotation Xrotation
							JOINT LeftHand
							{
								OFFSET 3.55539 -0.00000 0.00000
								CHANNELS 3 Zrotation Yrotation Xrotation
								JOINT LeftFingerBase
								{
									OFFSET 0 0 0
									CHANNELS 3 Zrotation Yrotation Xrotation
									JOINT LeftHandIndex1
									{
										OFFSET 0.70726 -0.00000 0.00000
										CHANNELS 3 Zrotation Yrotation Xrotation
										End Site
										{
											OFFSET 0.57022 -0.00000 0.00000
										}
									}
								}
								JOINT LThumb
								{
									OFFSET 0 0 0
									CHANNELS 3 Zrotation Yrotation Xrotation
									End Site
									{
										OFFSET 0.57892 -0.00000 0.57892
									}
								}
							}
						}
					}
				}
				JOINT RightShoulder
				{
					OFFSET 0 0 0
					CHANNELS 3 Zrotation Yrotation Xrotation
					JOINT RightArm
					{
						OFFSET -2.80694 1.55459 -0.32496
						CHANNELS 3 Zrotation Yrotation Xrotation
						JOINT RightForeArm
						{
							OFFSET -4.71925 -0.00000 -0.00000
							CHANNELS 3 Zrotation Yrotation Xrotation
							JOINT RightHand
							{
								OFFSET -3.56990 -0.00000 0.00000
								CHANNELS 3 Zrotation Yrotation Xrotation
								JOINT RightFingerBase
								{
									OFFSET 0 0 0
									CHANNELS 3 Zrotation Yrotation Xrotation
									JOINT RightHandIndex1
									{
										OFFSET -0.50776 -0.00000 0.00000
										CHANNELS 3 Zrotation Yrotation Xrotation
										End Site
										{
											OFFSET -0.40937 -0.00000 0.00000
										}
									}
								}
								JOINT RThumb
								{
									OFFSET 0 0 0
									CHANNELS 3 Zrotation Yrotation Xrotation
									End Site
									{
										OFFSET -0.41562 -0.00000 0.41562
									}
								}
							}
						}
					}
				}
			}
		}
	}
}
MOTION
Frames: 7
Frame Time: .0083333
16.6648 19.6666 20.6703 0 0 0 0 0 0 -21 0 0 0 0 0 0 0 0 0 0 0 0 0 0 21 0 0 0 0 0 0 0 0 0 0 0 0 0 0 0 0 0 0 0 0 0 0 -16 0 0 21 0 0 11 0 0 0 -8 0 0 0 0 0 0 0 0 0 0 0 0 0 0 0 0 0 0 0 0 8 0 0 0 0 0 0 0 0 0 0 0 0 0 0 0 0 0
16.6648 19.6666 20.6703 177.2850 -3.6127 -154.1370 0.0000 0.0000 0.0000 -22.1059 -14.6743 -19.1259 0.1603 2.5799 7.1113 0.0922 -4.2576 -5.7608 3.0024 -10.6989 -31.2710 0.0000 0.0000 0.0000 18.6947 12.3781 -19.0967 -0.0794 -1.8172 5.0008 -1.1057 4.5327 -18.8831 -1.2696 7.1416 -20.1356 -8.4078 -3.1621 -30.5064 0.2296 -1.7175 -0.0902 4.0449 -1.6219 16.1838 -1.2387 -0.6093 -3.7849 5.8316 -2.5233 16.1030 1.8490 -1.2734 5.5542 0.0000 -0.0000 0.0000 -85.5908 0.6643 18.6878 11.6691 -19.3066 -1.9915 -0.0000 -0.0000 3.6924 21.8043 -10.7187 -4.2553 -7.1250 0.0000 -0.0000 -3.7131 18.4704 2.3504 0.0000 -0.0000 0.0000 91.0601 -6.3078 1.8533 -16.9328 26.7691 -4.0570 0.0000 -0.0000 -0.7016 -11.5495 -48.2154 8.6639 7.1250 -0.0000 -0.0000 51.0555 -73.4764 -36.7594
16.6667 19.6672 20.6724 177.3290 -3.6269 -154.1150 0.0000 0.0000 0.0000 -22.0160 -14.7632 -19.1389 0.1593 2.5720 7.0892 0.0930 -4.2160 -5.7692 2.8849 -10.5064 -30.6328 0.0000 0.0000 0.0000 18.8310 11.7867 -19.1282 -0.0662 -1.6603 4.5677 -1.0574 5.0451 -18.4083 -1.2363 7.0509 -19.8662 -8.3548 -3.1297 -30.5220 0.2395 -1.6956 -0.1022 4.0363 -1.6086 16.1734 -1.2482 -0.6017 -3.5740 5.8140 -2.4317 15.5799 1.8519 -1.2249 5.3517 -0.0000 -0.0000 0.0000 -85.6139 0.6544 18.4999 11.4598 -18.9896 -1.9229 -0.0000 -0.0000 3.9297 21.8618 -10.6635 -4.2460 -7.1250 0.0000 -0.0000 -3.6707 18.5246 2.3191 -0.0000 -0.0000 0.0000 91.1149 -6.2190 1.5627 -16.7970 26.5893 -3.9960 0.0000 -0.0000 -0.4182 -11.9034 -48.8333 9.0169 7.1250 -0.0000 -0.0000 52.5810 -73.9441 -38.4631
16.6694 19.6667 20.6741 177.3860 -3.5943 -154.0520 0.0000 0.0000 0.0000 -21.9057 -14.8951 -19.1578 0.1559 2.5442 7.0123 0.0960 -4.0352 -5.7914 2.8287 -10.4125 -30.3230 0.0000 0.0000 0.0000 18.7800 12.5271 -19.2530 -0.0835 -1.8643 5.1307 -1.1029 4.5404 -18.8577 -1.2180 7.0005 -19.7169 -8.2874 -3.0583 -30.5622 0.2249 -1.6271 -0.1356 4.0114 -1.5733 16.1408 -1.0989 -0.5317 -3.6657 5.7562 -2.2994 15.3744 1.8165 -1.1461 5.2973 -0.0000 -0.0000 0.0000 -85.6110 0.6816 18.2645 11.2576 -18.6820 -1.8576 -0.0000 -0.0000 4.3647 21.9068 -10.7528 -4.2907 -7.1250 0.0000 -0.0000 -3.6418 18.4254 2.3087 -0.0000 -0.0000 0.0000 91.2124 -6.2860 1.4657 -16.7956 26.5876 -3.9954 0.0000 -0.0000 -0.4861 -12.1105 -49.4167 9.2556 7.1250 -0.0000 -0.0000 54.2161 -74.3238 -40.1971
16.6724 19.6664 20.6766 177.3910 -3.5671 -154.0140 0.0000 0.0000 0.0000 -21.9099 -14.8366 -19.2494 0.1571 2.5539 7.0391 0.0970 -3.9871 -5.8051 3.1245 -10.8939 -31.9228 0.0000 0.0000 0.0000 18.8170 12.2576 -19.3659 -0.0814 -1.8404 5.0649 -1.0897 4.8648 -18.7101 -1.1962 6.9398 -19.5370 -8.2788 -3.0179 -30.5843 0.2126 -1.5750 -0.1420 4.0145 -1.5499 16.1355 -0.9514 -0.4949 -3.8083 5.6962 -2.2221 15.2378 1.7772 -1.0945 5.2752 -0.0000 0.0000 0.0000 -85.6437 0.6872 18.0256 11.1131 -18.4614 -1.8116 -0.0000 -0.0000 4.6911 21.7718 -10.6279 -4.2129 -7.1250 0.0000 -0.0000 -3.7333 18.5701 2.3550 -0.0000 0.0000 0.0000 91.2652 -6.3187 1.3851 -16.7889 26.5786 -3.9924 0.0000 -0.0000 -0.6012 -12.1538 -49.4537 9.2941 7.1250 -0.0000 -0.0000 54.2995 -74.3587 -40.3018
16.6753 19.6682 20.6794 177.3590 -3.6159 -154.0370 0.0000 0.0000 0.0000 -21.9471 -14.7917 -19.2805 0.1602 2.5789 7.1085 0.0959 -4.0850 -5.8020 3.2949 -11.1578 -32.8139 0.0000 0.0000 0.0000 18.8266 12.0293 -19.3352 -0.0769 -1.7890 4.9229 -1.0827 5.0414 -18.6339 -1.1758 6.8824 -19.3675 -8.2510 -3.0115 -30.5282 0.1731 -1.5751 -0.1440 3.9573 -1.5449 16.1054 -1.0344 -0.4708 -3.7433 5.8325 -2.1997 15.1826 1.8351 -1.0823 5.2479 -0.0000 -0.0000 0.0000 -85.6287 0.7394 17.8417 11.0117 -18.3063 -1.7796 -0.0000 -0.0000 4.8326 21.7347 -10.5440 -4.1723 -7.1250 0.0000 -0.0000 -3.7571 18.6627 2.3624 -0.0000 -0.0000 0.0000 91.3145 -6.3323 1.2777 -16.7213 26.4889 -3.9622 0.0000 -0.0000 -0.6228 -11.9507 -48.9949 9.0750 7.1250 -0.0000 -0.0000 53.0329 -74.0470 -38.9377
16.6785 19.6697 20.6803 177.3810 -3.6446 -154.0910 0.0000 0.0000 0.0000 -21.8780 -14.9082 -19.1831 0.1603 2.5796 7.1104 0.0969 -4.0325 -5.8145 3.0548 -10.7832 -31.5522 0.0000 0.0000 0.0000 18.8650 12.0901 -19.3401 -0.0819 -1.8465 5.0818 -1.0968 4.9666 -18.7646 -1.1527 6.8168 -19.1737 -8.1430 -2.9867 -30.5011 0.1209 -1.5701 -0.1174 3.8445 -1.5321 16.1210 -1.1726 -0.4114 -3.6194 5.9893 -2.1316 15.1385 1.9113 -1.0520 5.2126 -0.0000 -0.0000 0.0000 -85.6104 0.8368 17.5192 10.9466 -18.2064 -1.7592 -0.0000 -0.0000 5.1644 21.7882 -10.5614 -4.1904 -7.1250 0.0000 -0.0000 -3.7198 18.6397 2.3407 -0.0000 -0.0000 0.0000 91.3702 -6.3749 1.2808 -16.6895 26.4466 -3.9480 0.0000 -0.0000 -0.6652 -11.6770 -48.4305 8.7896 7.1250 -0.0000 -0.0000 51.5712 -73.6425 -37.3401
